<svg xmlns="http://www.w3.org/2000/svg" viewBox="0 0 512 512">
  <g fill="none" stroke="#fff" stroke-width="24" stroke-linecap="round" stroke-linejoin="round">
    <path d="M168 80H304L376 152V400Q376 432 344 432H168Q136 432 136 400V112Q136 80 168 80Z"/>
    <path d="M304 80V152H376"/>
    <path d="M176 224H336M176 272H312M176 320H328"/>
  </g>
  <path fill="#fff" d="M420 88l16 20 20 12-20 12-16 20-16-20-20-12 20-12z"/>
  <path fill="#fff" opacity=".7" d="M380 180l10 12 14 8-14 8-10 12-10-12-14-8 14-8z"/>
</svg>
