<svg xmlns="http://www.w3.org/2000/svg" width="1200" height="630" viewBox="0 0 1200 630">
  <defs>
    <linearGradient id="bg" x1="0%" y1="0%" x2="100%" y2="100%">
      <stop offset="0%" style="stop-color:#0a0a0f"/>
      <stop offset="50%" style="stop-color:#111118"/>
      <stop offset="100%" style="stop-color:#0a0a0f"/>
    </linearGradient>
    <linearGradient id="accent" x1="0%" y1="0%" x2="100%" y2="100%">
      <stop offset="0%" style="stop-color:#6366f1"/>
      <stop offset="100%" style="stop-color:#8b5cf6"/>
    </linearGradient>
  </defs>
  
  <!-- Background -->
  <rect width="1200" height="630" fill="url(#bg)"/>
  
  <!-- Subtle grid pattern -->
  <pattern id="grid" width="40" height="40" patternUnits="userSpaceOnUse">
    <path d="M 40 0 L 0 0 0 40" fill="none" stroke="rgba(255,255,255,0.02)" stroke-width="1"/>
  </pattern>
  <rect width="1200" height="630" fill="url(#grid)"/>
  
  <!-- Ambient glow -->
  <ellipse cx="600" cy="315" rx="400" ry="250" fill="rgba(99,102,241,0.08)"/>
  
  <!-- Icon (centered, larger) -->
  <g transform="translate(450, 165) scale(0.6)">
    <g fill="none" stroke="#fff" stroke-width="24" stroke-linecap="round" stroke-linejoin="round">
      <path d="M168 80H304L376 152V400Q376 432 344 432H168Q136 432 136 400V112Q136 80 168 80Z"/>
      <path d="M304 80V152H376"/>
      <path d="M176 224H336M176 272H312M176 320H328"/>
    </g>
    <path fill="#fff" d="M420 88l16 20 20 12-20 12-16 20-16-20-20-12 20-12z"/>
    <path fill="#fff" opacity=".7" d="M380 180l10 12 14 8-14 8-10 12-10-12-14-8 14-8z"/>
  </g>
  
  <!-- App Name -->
  <text x="600" y="480" text-anchor="middle" font-family="-apple-system, BlinkMacSystemFont, 'Segoe UI', Roboto, sans-serif" font-size="56" font-weight="600" fill="#ffffff">AuroraNotes</text>
  
  <!-- Tagline -->
  <text x="600" y="530" text-anchor="middle" font-family="-apple-system, BlinkMacSystemFont, 'Segoe UI', Roboto, sans-serif" font-size="24" font-weight="400" fill="rgba(255,255,255,0.6)">AI-Powered Notes</text>
</svg>

